name analog
datacolumns 19
datarows 35
range 0.2235 0.2405
endheader
time	ground_force_vx	ground_force_vy	ground_force_vz	ground_force_px	ground_force_py	ground_force_pz	l_ground_force_vx	l_ground_force_vy	l_ground_force_vz	l_ground_force_px	l_ground_force_py	l_ground_force_pz	ground_torque_x	ground_torque_y	ground_torque_z	l_ground_torque_x	l_ground_torque_y	l_ground_torque_z
0.2235	-0.0	-0.0	-0.0	-1.336982488632202	-12.03154754638672	-729.318359375	-0.0	-0.0	-0.0	-0.0	-0.0	-0.0	-0.0	-0.0	-0.0	-0.0	-0.0	-0.0
0.224	-0.0	-0.0	-0.0	-1.5154922008514404	-11.943318367004396	-729.319580078125	-0.0	-0.0	-0.0	-0.0	-0.0	-0.0	-0.0	-0.0	-0.0	-0.0	-0.0	-0.0
0.2245	-0.0	-0.0	-0.0	-2.5849356651306152	-11.85452365875244	-727.1982421875	-0.0	-0.0	-0.0	-0.0	-0.0	-0.0	-0.0	-0.0	-0.0	-0.0	-0.0	-0.0
0.225	-0.0	-0.0	-0.0	-2.854081153869629	-11.408037185668944	-725.0827026367188	-0.0	-0.0	-0.0	-0.0	-0.0	-0.0	-0.0	-0.0	-0.0	-0.0	-0.0	-0.0
0.2255	-0.0	-0.0	-0.0	-3.568164348602295	-10.606773376464844	-724.728271484375	-0.0	-0.0	-0.0	-0.0	-0.0	-0.0	-0.0	-0.0	-0.0	-0.0	-0.0	-0.0
0.226	-0.0	-0.0	-0.0	-4.637183666229248	-9.984660148620604	-721.5477905273438	-0.0	-0.0	-0.0	-0.0	-0.0	-0.0	-0.0	-0.0	-0.0	-0.0	-0.0	-0.0
0.2265	-0.0	-0.0	-0.0	-4.371946334838867	-9.449714660644531	-718.722412109375	-0.0	-0.0	-0.0	-0.0	-0.0	-0.0	-0.0	-0.0	-0.0	-0.0	-0.0	-0.0
0.227	-0.0	-0.0	-0.0	-4.54938268661499	-8.646708488464355	-716.251708984375	-0.0	-0.0	-0.0	-0.0	-0.0	-0.0	-0.0	-0.0	-0.0	-0.0	-0.0	-0.0
0.2275	-0.0	-0.0	-0.0	-4.550909042358398	-8.91186809539795	-716.2612915039062	-0.0	-0.0	-0.0	-0.0	-0.0	-0.0	-0.0	-0.0	-0.0	-0.0	-0.0	-0.0
0.228	-0.0	-0.0	-0.0	-4.371315002441406	-8.466139793395996	-716.24560546875	-0.0	-0.0	-0.0	-0.0	-0.0	-0.0	-0.0	-0.0	-0.0	-0.0	-0.0	-0.0
0.2285	-0.0	-0.0	-0.0	-4.547919273376465	-7.487861633300781	-714.4920043945312	-0.0	-0.0	-0.0	-0.0	-0.0	-0.0	-0.0	-0.0	-0.0	-0.0	-0.0	-0.0
0.229	-0.0	-0.0	-0.0	-3.6581227779388423	-6.061850547790527	-713.068359375	-0.0	-0.0	-0.0	-0.0	-0.0	-0.0	-0.0	-0.0	-0.0	-0.0	-0.0	-0.0
0.2295	-0.0	-0.0	-0.0	-3.746324062347412	-5.617799758911133	-712.3679809570312	-0.0	-0.0	-0.0	-0.0	-0.0	-0.0	-0.0	-0.0	-0.0	-0.0	-0.0	-0.0
0.23	-0.0	-0.0	-0.0	-3.654855489730835	-5.438063621520996	-711.31103515625	-0.0	-0.0	-0.0	-0.0	-0.0	-0.0	-0.0	-0.0	-0.0	-0.0	-0.0	-0.0
0.2305	-0.0	-0.0	-0.0	-3.5630853176116943	-5.078656196594238	-709.5361328125	-0.0	-0.0	-0.0	-0.0	-0.0	-0.0	-0.0	-0.0	-0.0	-0.0	-0.0	-0.0
0.231	-0.0	-0.0	-0.0	-3.119894504547119	-4.722057819366455	-707.7823486328125	-0.0	-0.0	-0.0	-0.0	-0.0	-0.0	-0.0	-0.0	-0.0	-0.0	-0.0	-0.0
0.2315	-0.0	-0.0	-0.0	-2.583824634552002	-4.987370014190674	-705.6665649414062	-0.0	-0.0	-0.0	-0.0	-0.0	-0.0	-0.0	-0.0	-0.0	-0.0	-0.0	-0.0
0.232	-0.0	-0.0	-0.0	-1.7855976819992063	-3.8333003520965576	-707.0415649414062	-0.0	-0.0	-0.0	-0.0	-0.0	-0.0	-0.0	-0.0	-0.0	-0.0	-0.0	-0.0
0.2325	-0.0	-0.0	-0.0	-0.3582732677459717	-4.368104457855225	-706.70166015625	-0.0	-0.0	-0.0	-0.0	-0.0	-0.0	-0.0	-0.0	-0.0	-0.0	-0.0	-0.0
0.233	-0.0	-0.0	-0.0	0.8028945922851562	-3.479848146438598	-706.7011108398438	-0.0	-0.0	-0.0	-0.0	-0.0	-0.0	-0.0	-0.0	-0.0	-0.0	-0.0	-0.0
0.2335	-0.0	-0.0	-0.0	1.6065800189971924	-3.032804250717163	-705.6629638671875	-0.0	-0.0	-0.0	-0.0	-0.0	-0.0	-0.0	-0.0	-0.0	-0.0	-0.0	-0.0
0.234	-0.0	-0.0	-0.0	2.6730010509490967	-3.2936856746673584	-707.0794067382812	-0.0	-0.0	-0.0	-0.0	-0.0	-0.0	-0.0	-0.0	-0.0	-0.0	-0.0	-0.0
0.23450000000000001	-0.0	-0.0	-0.0	3.474939346313477	-2.411640882492065	-706.0100708007812	-0.0	-0.0	-0.0	-0.0	-0.0	-0.0	-0.0	-0.0	-0.0	-0.0	-0.0	-0.0
0.23500000000000001	-0.0	-0.0	-0.0	3.8315930366516113	-1.7006056308746338	-707.0839233398438	-0.0	-0.0	-0.0	-0.0	-0.0	-0.0	-0.0	-0.0	-0.0	-0.0	-0.0	-0.0
0.23550000000000001	-0.0	-0.0	-0.0	3.831404447555542	-1.9608688354492188	-708.1110229492188	-0.0	-0.0	-0.0	-0.0	-0.0	-0.0	-0.0	-0.0	-0.0	-0.0	-0.0	-0.0
0.23600000000000002	-0.0	-0.0	-0.0	3.4820752143859863	-0.8941668272018433	-704.9547119140625	-0.0	-0.0	-0.0	-0.0	-0.0	-0.0	-0.0	-0.0	-0.0	-0.0	-0.0	-0.0
0.23650000000000002	-0.0	-0.0	-0.0	3.040107011795044	0.1752850413322448	-706.7169189453125	-0.0	-0.0	-0.0	-0.0	-0.0	-0.0	-0.0	-0.0	-0.0	-0.0	-0.0	-0.0
0.23700000000000002	-0.0	-0.0	-0.0	2.5133519172668457	1.1566359996795654	-705.9659423828125	-0.0	-0.0	-0.0	-0.0	-0.0	-0.0	-0.0	-0.0	-0.0	-0.0	-0.0	-0.0
0.23750000000000002	-0.0	-0.0	-0.0	2.681596279144287	2.40968656539917	-702.857421875	-0.0	-0.0	-0.0	-0.0	-0.0	-0.0	-0.0	-0.0	-0.0	-0.0	-0.0	-0.0
0.23800000000000002	-0.0	-0.0	-0.0	2.0584053993225098	3.739105224609375	-704.57666015625	-0.0	-0.0	-0.0	-0.0	-0.0	-0.0	-0.0	-0.0	-0.0	-0.0	-0.0	-0.0
0.23850000000000002	-0.0	-0.0	-0.0	2.14105224609375	4.984519004821777	-703.1723022460938	-0.0	-0.0	-0.0	-0.0	-0.0	-0.0	-0.0	-0.0	-0.0	-0.0	-0.0	-0.0
0.23900000000000002	-0.0	-0.0	-0.0	2.2291054725646973	6.140747547149658	-703.4977416992188	-0.0	-0.0	-0.0	-0.0	-0.0	-0.0	-0.0	-0.0	-0.0	-0.0	-0.0	-0.0
0.23950000000000002	-0.0	-0.0	-0.0	2.3170833587646484	6.5980377197265625	-702.1311645507812	-0.0	-0.0	-0.0	-0.0	-0.0	-0.0	-0.0	-0.0	-0.0	-0.0	-0.0	-0.0
0.24	-0.0	-0.0	-0.0	2.1361215114593506	7.313619136810303	-704.2310791015625	-0.0	-0.0	-0.0	-0.0	-0.0	-0.0	-0.0	-0.0	-0.0	-0.0	-0.0	-0.0
0.2405	-0.0	-0.0	-0.0	2.0505831241607666	7.041301727294922	-706.3548583984375	-0.0	-0.0	-0.0	-0.0	-0.0	-0.0	-0.0	-0.0	-0.0	-0.0	-0.0	-0.0
